<?xml version="1.0" standalone="no"?>
<!DOCTYPE svg PUBLIC "-//W3C//DTD SVG 20010904//EN"
 "http://www.w3.org/TR/2001/REC-SVG-20010904/DTD/svg10.dtd">
<svg version="1.0" xmlns="http://www.w3.org/2000/svg"
 width="1024.000000pt" height="1024.000000pt" viewBox="0 0 1024.000000 1024.000000"
 preserveAspectRatio="xMidYMid meet">

<g transform="translate(0.000000,1024.000000) scale(0.100000,-0.100000)"
fill="#000000" stroke="none">
<path d="M5400 8413 c-96 -18 -488 -95 -870 -169 -382 -74 -722 -142 -754
-150 -126 -32 -228 -110 -280 -213 -15 -28 -40 -109 -56 -179 -16 -70 -63
-271 -105 -447 -42 -176 -98 -417 -126 -535 -51 -217 -72 -278 -99 -291 -8 -4
-82 -19 -165 -33 -82 -15 -222 -40 -310 -57 -981 -183 -939 -173 -1023 -245
-70 -59 -89 -114 -112 -319 -24 -218 -80 -681 -155 -1268 -60 -476 -65 -573
-37 -664 24 -74 46 -110 174 -268 169 -211 371 -472 581 -751 108 -144 216
-279 241 -301 62 -54 132 -90 222 -113 123 -32 104 -34 549 70 550 129 1096
255 1478 341 220 49 424 98 455 109 80 28 158 85 211 152 24 32 51 58 60 58 9
0 51 -39 93 -88 116 -132 452 -482 500 -520 102 -81 260 -131 377 -118 31 3
148 28 261 56 113 28 270 66 350 85 80 19 305 73 500 120 195 47 432 103 525
125 803 188 800 187 897 284 100 100 146 226 134 366 -10 110 -75 690 -82 725
-3 17 -30 136 -61 265 -30 129 -121 523 -203 875 -85 367 -159 664 -173 697
-52 116 -136 211 -256 285 -307 190 -671 423 -801 513 -85 59 -219 146 -297
194 -77 48 -145 92 -150 99 -6 7 -18 53 -28 102 -61 303 -126 420 -348 628
-248 231 -573 521 -617 549 -68 44 -160 68 -249 67 -42 -1 -155 -17 -251 -36z
m385 -212 c22 -10 60 -34 84 -55 53 -45 479 -435 581 -533 126 -120 128 -125
246 -600 123 -498 124 -501 94 -542 -12 -17 -34 -38 -49 -45 -15 -8 -146 -37
-291 -66 -146 -28 -389 -75 -540 -105 -900 -177 -1035 -200 -1124 -191 -116
12 -212 79 -277 193 -95 167 -566 971 -698 1191 l-152 253 12 37 c19 57 106
137 170 157 47 14 415 81 1369 251 140 25 287 51 325 59 104 20 202 18 250 -4z
m-2039 -842 c34 -57 197 -338 364 -624 166 -286 329 -556 361 -600 l58 -80
-69 -445 c-90 -583 -97 -621 -110 -634 -8 -8 -33 14 -93 79 -102 111 -425 453
-696 735 -137 144 -210 228 -223 257 -28 64 -34 172 -13 258 9 39 38 169 65
290 90 403 197 841 226 925 8 23 58 -39 130 -161z m3511 -780 c152 -99 296
-196 321 -214 41 -32 43 -34 20 -40 -12 -3 -117 -27 -233 -54 -115 -27 -225
-51 -244 -53 l-33 -3 -48 237 c-26 130 -53 251 -59 269 -12 36 -13 39 -6 39 3
0 129 -81 282 -181z m-413 -334 c8 -44 26 -134 40 -200 44 -207 74 -445 65
-509 -9 -70 -48 -138 -99 -175 -42 -30 -106 -47 -610 -161 -151 -34 -477 -109
-725 -167 -925 -214 -944 -218 -1019 -193 l-37 12 6 56 c31 267 144 1084 150
1091 3 2 28 -6 57 -17 69 -28 132 -41 189 -42 52 0 1875 364 1923 384 17 8 34
11 38 7 3 -3 13 -42 22 -86z m-3742 -97 c7 -168 32 -210 301 -493 270 -283
314 -332 320 -354 3 -13 0 -24 -6 -27 -14 -5 -854 -164 -1062 -200 -152 -27
-230 -27 -284 0 -17 9 -62 54 -100 99 -38 45 -149 178 -247 296 -318 379 -322
386 -268 450 29 35 114 81 150 81 17 0 342 61 794 150 148 29 319 70 355 86
16 7 33 13 36 14 4 0 9 -46 11 -102z m4876 12 c99 -45 178 -137 212 -249 40
-129 361 -1439 401 -1635 45 -220 45 -247 -1 -319 -55 -88 -109 -112 -381
-171 -84 -18 -338 -75 -564 -125 -823 -182 -1113 -241 -1190 -241 -88 0 -144
26 -192 89 -46 60 -70 147 -104 381 -16 113 -45 304 -65 425 -50 307 -83 561
-77 584 4 15 22 23 81 36 43 9 172 39 287 66 116 27 220 52 232 54 24 6 19 25
67 -240 14 -77 48 -277 76 -445 27 -168 52 -320 55 -337 4 -22 12 -33 23 -33
9 0 79 12 155 27 122 24 137 30 137 48 0 50 -55 368 -97 561 -6 25 -32 17 292
86 105 22 196 45 203 50 7 6 14 9 16 7 8 -8 55 -217 92 -400 20 -103 40 -192
44 -199 5 -9 39 -4 131 20 68 18 134 35 147 37 14 3 21 11 18 19 -3 7 -12 48
-21 91 -9 43 -31 146 -50 228 -19 83 -71 317 -115 520 -70 319 -129 574 -135
582 -2 3 -174 -43 -239 -64 -44 -14 -48 -17 -42 -42 29 -134 106 -509 106
-518 0 -6 -49 -23 -112 -38 -152 -36 -391 -85 -395 -82 -7 8 -23 114 -23 156
0 49 7 61 87 160 53 65 97 157 113 236 14 69 8 226 -15 393 -22 157 -23 156
88 182 91 22 479 104 527 113 71 12 186 6 228 -13z m-6244 -502 c289 -353 473
-581 495 -612 24 -37 26 -46 24 -140 -4 -132 -80 -1428 -93 -1576 -14 -147
-17 -160 -44 -160 -31 0 -65 33 -157 155 -96 129 -145 192 -289 375 -132 167
-149 196 -156 257 -3 27 12 204 35 413 23 201 57 529 77 730 19 201 40 418 46
483 7 64 15 117 19 117 5 0 24 -19 43 -42z m2203 -602 c37 -46 110 -129 161
-184 107 -116 119 -100 -93 -132 -123 -19 -451 -77 -762 -137 l-143 -27 0
-159 0 -159 28 7 c46 12 314 62 369 70 l52 7 -6 -551 c-6 -542 -6 -551 13
-551 16 0 185 45 286 76 17 5 18 42 20 551 l3 546 45 13 c25 8 104 25 175 39
72 15 145 31 163 36 l32 11 0 89 0 89 38 -25 c44 -29 129 -59 194 -69 48 -7
118 5 447 78 85 19 158 33 163 30 24 -15 -12 -1313 -39 -1398 -17 -53 -78
-122 -131 -150 -44 -23 -278 -80 -1267 -311 -203 -47 -514 -120 -690 -161
-352 -83 -375 -85 -471 -40 -59 28 -108 75 -179 170 -91 124 -88 109 -76 339
6 111 20 393 31 627 11 234 29 593 42 798 l22 372 35 -7 c100 -21 266 -2 951
112 245 41 459 76 475 78 17 2 33 5 37 6 4 0 38 -37 75 -83z m1947 -193 c3
-10 10 -55 16 -99 20 -155 120 -730 176 -1016 l57 -287 -57 -198 c-31 -109
-67 -247 -81 -308 -37 -164 -47 -195 -56 -189 -11 7 -385 424 -513 572 l-98
114 7 161 c3 89 10 382 15 651 6 269 11 490 12 492 3 2 492 120 510 123 4 1 9
-7 12 -16z m2801 -1246 c10 -92 15 -195 12 -227 -10 -119 -85 -193 -220 -220
-62 -12 -182 -41 -1512 -370 -438 -108 -708 -170 -740 -170 -56 0 -137 24
-155 45 -9 11 -1 66 35 237 56 267 104 480 109 486 2 2 23 -10 47 -27 44 -32
152 -71 196 -71 50 0 569 112 1321 286 251 58 527 120 613 139 146 31 241 64
256 88 11 19 20 -24 38 -196z"/>
<path d="M5355 7754 c-708 -150 -819 -175 -831 -187 -3 -3 10 -32 29 -64 19
-32 79 -139 132 -238 133 -246 381 -681 441 -773 6 -10 1064 217 1064 228 0 4
-27 49 -60 101 -33 52 -63 99 -68 106 -5 9 -102 -12 -366 -78 -197 -49 -360
-88 -361 -87 -20 22 -129 238 -123 243 2 1 134 30 293 65 160 34 292 64 295
67 13 12 -116 214 -133 208 -6 -2 -145 -34 -307 -69 l-295 -65 -17 22 c-22 29
-106 167 -113 188 -8 21 -5 21 400 99 176 34 321 63 323 65 11 11 -110 205
-127 204 -9 0 -88 -16 -176 -35z"/>
</g>
</svg>
