<?xml version="1.0" encoding="UTF-8"?>
<svg xmlns="http://www.w3.org/2000/svg" version="1.1" viewBox="0 0 2048 1156" width="659" height="372" style="background-color:transparent;">
  <path transform="translate(0)" d="m0 0h2048v1156h-2048z" fill="#FDFDFD"/>
  <path transform="translate(1988,474)" d="m0 0h13l10 5 7 9 2 5v13l-3 9-5 7-10 6-3 1h-12l-8-4-7-7-3-6v-2h-2v2l-7 1-72 1-32 2-70 2-50 2-77 2-51 2-37 1-11 1-283 1h-91l1 62 6 2 8 7 4 8 2 12h4l5-1 2 6 2 144v51l-2 45-8 28-7 21-6 9-9 10-7 8-10 9-11 7-6 3-10 4-11 8-13 3-14 3-26 3h-45l-19-2-8-1-15-5-24-11-17-9-9-7-9-9-11-14-8-14-7-24-5-25-2-22-1-49-1-93v-50l1-12 5 2 3 2-2-8v-16l4-9 6-7 6-4v-65l-36 1-17 1-117 1-230 1h-65l-7-3h-18l-6 10-8 6 1 151 1 56 6 8 3 7v14l-4 10-5 6-12 6h-11l-10-5-6-7-3-6v-17l5-10 7-6 8-4h5l-1-138v-63l-9-3-8-8-4-9v-12l5-12 7-7 10-4h11l7 3 5 4 7 11h20l2-2 219-1h113l765-3 98-3 39-2 44-1 16-1 60-1 63-3 43-1 56-3 9-10z" fill="#E06F1D"/>
  <path transform="translate(549,132)" d="m0 0h20l10 4 9 9 6 12v16l-3 8-9 10-8 5-17 5-1 2-9 1-61 1-22 1h-29l-5-1-16 9-10 8-6 5-8 11-2 5v5l1 1h31l81-1 3-2 11 1 10 4 9 6 7 7 5 9 2 7v14l-3 10-7 10-9 8-14 7-6 2-8 1-19 1-2 5-3 3-3 1-66 2-61 1-5 12-3 10v8h98l5-1h14l16 8 8 8 4 11v17l-3 8-6 9-9 7-10 4-27 2-48 2-14 3-14 2-26 1-35 3-56 2-26 2-53 2h-68l-19-3-16-7-13-9-7-7-7-11-3-7-2-8v-13l3-10 6-11 9-10 11-10 21-9 69 1h26l5-1 2-19-33 2-36 1h-19l-6-3-3-4v-7l4-3 12-2 7-1 73-1 1-12-80 2h-9l-18-2-10-8-4-1-1-5-1-20 6-3 8-7 5-2 55-2h21l4 1 2-8-13 1-59 1-8-5-6-7-1-3v-12l5-8 9-6 6-2h7l2 1h20l34-1 3-7-57 1-9-5-7-8-3-7v-11l4-8 7-7 10-5 12-2h16l10-1 57-1 76-3 67-1 201-6 13-1z" fill="#020303"/>
  <path transform="translate(1393,616)" d="m0 0h66l26 5 26 8 11 4 12 6 10 8 12 18 6 15 2 11v29l-4 13-6 10-3 7-7 8-8 9-5 5-9 6-6 5h-2v3l6 2 11 5 13 10 9 6 9 7 6 9 9 17 1 3 2 29-1 13-1 12-5 12-9 16-8 8-11 8-8 7-6 4-6 2-9 2-13 4-9 4-2 1-17 2-7 2-37 2-46 1h-68l-16-2-4-3-2-11v-125l-1-19v-74l-1-51v-47l3-16 5-5 5-3 13-1z" fill="#E06F1E"/>
  <path transform="translate(793,621)" d="m0 0h18l5 3 6 7 2 9 1 209v124l-8 5h-55l-6-2-1-2-1-36-1-77-1-24-2-10h-97l-59 1-3 1-3 7-1 12 1 112-1 14-5 5-3 1h-60l-3-4-1-13-1-46-1-8 1-4v-20l-1-79-1-39v-65l-1-30v-28l3-12 5-5 8-3h45l7 3 5 5 1 4 1 117 2 9 2 4 9 3 4 1h29l101-1 13-2 4-6 2-11v-20l-1-75 1-22 3-6 5-4 3-1z" fill="#E0701F"/>
  <path transform="translate(1723,116)" d="m0 0h48l1 12 1 25 2 171 1 111 4 1 1 5-11 3h-63l-1-101-1-37-129 1-14 1-2 3v134l-26 1h-42l-1-1-1-83-1-113v-127l1-4h66l1 4 1 75 1 49 3 4h45l82-1 15-1 1-128 4-3z" fill="#0B3C59"/>
  <path transform="translate(1988,474)" d="m0 0h13l10 5 7 9 2 5v13l-3 9-5 7-10 6-3 1h-12l-8-4-7-7-3-6v-2h-2v2l-7 1-72 1-32 2-70 2-50 2-77 2-51 2-37 1-11 1-283 1h-91l1 62 6 2 8 7 4 8 1 3v14l-3 8-6 7-10 6-3 1h-12l-10-5-6-7-3-6v-18l5-10 7-7 4-2v-18l-1-44h-231v62l9 1 8 7 6 9 1 3v15l-4 10-7 8-9 5-4 1h-9l-10-4-8-7-3-5-1-5v-16l4-9 6-7 6-4v-65l-36 1-17 1-117 1-230 1h-65l-7-3h-18l-6 10-8 6 1 151 1 56 6 8 3 7v14l-4 10-5 6-12 6h-11l-10-5-6-7-3-6v-17l5-10 7-6 8-4h5l-1-138v-63l-9-3-8-8-4-9v-12l5-12 7-7 10-4h11l7 3 5 4 7 11h20l2-2 219-1h113l765-3 98-3 39-2 44-1 16-1 60-1 63-3 43-1 56-3 9-10z" fill="#040605"/>
  <path transform="translate(1062,567)" d="m0 0h13l19 2 2 1 9 1 14 8 9 9 6 7 7 5 1-7 4-1-1 10-1 5-2 4-4 2-1 16-1 2h-2v32l5 2 1 2-1 19-3 24-3 11-7 12-9 10-10 8v2l3 2 11 2 19 5 6 4 1 61-2 26-2 9h-2l-1 12-4 10-5 7-8 7-12 9-7 3h-3v2l-23 2h-40l-1-1-13-1-16-5-5-5-8-7-2-7-1-15v-25l-3 1-4 5-7 1-2-5-2-14-1-17v-29l1-12 5-4 4-4 13-5 19-5 11-3h8l1-5 5-4 5-2v-2l-14-10-12-11-3-3-12-1-3-3 1-2 4 2-2-5-7-7-3-5-4-4-2-1-1-3v-8l3-5 5-1 9 4v-5h-8l-4-10-5-23-1-3v-29l4-8 9-8 4-3h2v-2l10-8 14-7 7-3 9-3z" fill="#587939"/>
  <path transform="translate(1088,121)" d="m0 0h41l1 6v46l-3 2-33 1-95 1-27 1-2 1v60l1 13 3 1h135v53l-129 2-10 1 1 56 1 27 2 5h42l90-1 27 1 1 1v50l-1 1-116 1-64 1h-48l-1-4-1-60-1-154-1-42v-68l47-1z" fill="#0B3C58"/>
  <path transform="translate(1335,118)" d="m0 0h59l18 4 9 3 9 2 4 4 1 5v7l-3 10-10 20-9 4-4-2-11-1-13-3-11-1-6-1-6 1-30 1-6 2-12 2-22 10-13 9-10 9-9 11-10 18-4 13-2 6-4 23v27l3 8 3 15 6 17 6 10 6 9 10 11 10 8 10 6 6 3 9 3 13 4 24 3h14l34-4 22-8 2-1h11l5 8 9 19 3 5v8l-5 6-12 7-14 5-17 6-21 2-8 2-12 1h-16l-18-1-26-4-24-7-12-5-24-13-11-8-10-9-13-14-11-17-16-32 3 1-5-13-2-16-2-7v-15l-1-13 1-3v-6l-1-5 3-10v-3h-2l1-9h3l-1-3 3-3v-6l-2 1 1-4 3-1 10-25 8-15 10-13 15-16 17-13 20-12 17-8 19-6 12-2z" fill="#0C3C58"/>
  <path transform="translate(692,123)" d="m0 0h7l1 1h25l67-1h86l1 23v31l-1 1-68 1-35 1v270l-26 2h-20l-2-4-4 4h-14l-1-1-1-61-1-148-1-62h-90v-55h77z" fill="#0B3C59"/>
  <path transform="translate(1025,527)" d="m0 0h143l1 1 1 44v18l-8 6-5 6-4 11-1 11-6-1-2-1 1 37v105l-5-1-19-5-11-2-4-3 2-4 9-7 9-10 7-13 3-15 3-29v-8l-3-3-2-1v-32h2l1-18 2-2h3l2-9 1-8 1-2-3 1-2 7-4-2-9-8-7-8-9-6-7-4-9-1-8-2-13-1h-13l-21 3-11 4-8 5-10 5-5 5h-2v2l-11 8-5 6-2 5v29l5 20 2 7 2 8 8 1v5l-4-1-5-2-5 1-2 4v8l2 3 5 5 3 5v2l5 2 3 4 1 5-4-1 1 2 12 1 11 11 20 15-3 3-7 3-2 2-1 4-11 2-20 5-18 6-9 6-2 1-2-146-3-7-8-1-1-13-5-10-7-7-11-3v-62z" fill="#FDFDFC"/>
  <path transform="translate(309,158)" d="m0 0h11v123l1 8h-25l-6-9-6-7-7-3-9-1-9 3-8 6-4 8v15l4 8 10 8-2 4-1 14-1 108-1 1h-57l-4-1v-82l1-55v-65l-1-5 5-5 7-6 5-1 17-1 1-1 13-1h10l3-3 2-6 1-46 1-6z" fill="#055D33"/>
  <path transform="translate(1380,813)" d="m0 0h37l33 3 19 2 17 6 6 5 7 8 5 5 2 3 2 14v18l-3 10-6 11-7 7-5 3-18 5-10 3-43 4-13 1-7 1-18-4-6-3-4-8-1-6-1-71 4-9 5-6z" fill="#FEFEFE"/>
  <path transform="translate(1382,667)" d="m0 0h22l24 1 22 2 16 4 14 7 8 10 3 6 4 16v7l-4 13-7 13-8 9-12 5-13 4-14 2-17 1-37 1-3-2-8-2-6-12-1-14v-53l3-9 5-6z" fill="#FEFEFE"/>
  <path transform="translate(1062,567)" d="m0 0h13l19 2 2 1 9 1 14 8 9 9 6 7 7 5 1-7 4-1-1 10-1 5-2 4-4 2-1 16-1 2h-2l1 35h-2l-2-5-1-16-4-15-6-8-4-2-7-1-19 4-42 1-11 3-8 5-4 6-2 9-2 13-8 21-3 3-6-6v-2h-8l-4-10-5-23-1-3v-29l4-8 9-8 4-3h2v-2l10-8 14-7 7-3 9-3z" fill="#33271D"/>
  <path transform="translate(1100,620)" d="m0 0h10l4 3v11l2 8-1 3v3l-5 2-6 4-6 1v2l-6 5 1 2v9l1 11 1 5 3 1v-13h3l4 7 8-1 3-3 2-4-1-5-2-4 6 1 4 5 4 8 1 15-1 4 1 2-4 6-4 10-5 9-4 5h-2v2h-4l-1 3-4 1 1-3h2v-2h2l2-5 3-5v-4h2l1-6-5 1-9 6-5 2h-25l-2 1 7 4 3 4v2l9 2 2 1h9l-1 5-11 2-9-1-9-2-3-3-5-1-4-3v-2l-3-1-3-5v-2l-5-1-1-4h-2l-4-5-3-8-3-11 1-9h-2v-6l1-4-1-5v-8l-1-9-3-6-2 3-3-1v-8l4-8 6-5 10-4 5-1 42-1z" fill="#DEAD8C"/>
  <path transform="translate(346,307)" d="m0 0h20v15l-22 2-3 10-10 28v14l4 15 5 5 15 1 66 1-2 4-5 8-86 2-21 1-7 2-9 16-7 7-2 3h-3l1-68v-46l-1-11 6-1 2-4 3-3z" fill="#055D33"/>
  <path transform="translate(72,370)" d="m0 0h30l37 1v2l11-1 3-2h7l2 2h8l3-1v40l-1 32h-39v-2l9-6 6-9 1-3v-8l-4-11-9-8-5-2h-13l-6 3-5 4-6 10-2 3h-26l-2 4-2 3 31 1 6 11 7 6 4 4-46-1-9-3-2-3-5-3-7-7-6-12-1-3v-9l3-8 7-9 4-5h4l1-3z" fill="#055D33"/>
  <path transform="translate(396,156)" d="m0 0h19l-2 11 1 10 6 9 6 7-2 4-12 8-15 11-11 11-6 11-2 5v7l-8 2-2 4-3 1 1 31-1 1h-26l1-4 1-2 1-25 1-100 10-1z" fill="#055D33"/>
  <path transform="translate(1109,618)" d="m0 0 9 2 5 4 4 6 4 15 1 16 1 5h2l1-3 4 4-1 19-3 24-3 11-7 12-9 10-10 8-4-1-9 3-6 1-14-1-9-2-7-3-9-1-14-10-11-9-8-8-12-1-3-3 1-2 4 2-2-5-7-7-3-5-4-4-2-1-1-3v-8l3-5 5-1 9 4 1-3 6 5 8-20 2-7 1-9 4 2 3-3 3 9 1 13v6l1 4-2 7h2v14l2 1 2 8 5 10h2l2 4 4 1 2 5 2 1 2 4 4 2 6 2 5 3 12 1 5 1 6-1h3l1-5-10 1-10-4-3-4v-2l-6-2-2-3 4-1h24l10-5 5-4 4 1-3 12-5 8h-2v2h-2l1 1h2l1-2h4v-2l5-5 4-7 4-8 3-7 2-4-1-2 1-6-1-12-5-10-4-3-4-1 4 5-1 6-3 5-5 2h-5l-4-6v-2h-3l1 14-4-2-2-5-1-11v-9l-2-2 6-5h2v-2l9-4 4-3h4l-1-5 1-3-2-6v-11l-3-2-7-1v-1z" fill="#C08A64"/>
  <path transform="translate(515,270)" d="m0 0h6l6 7v12l-6 11-9 8-12 4-6 1-6-1v2l-14 3-27 3h-23l-35 1-1-1v-46l7-1 114-2z" fill="#075E33"/>
  <path transform="translate(819,265)" d="m0 0h10l9 4 7 8 3 6v16l-4 10-7 7-5 3-1 178-3 3h-8l-1-2-1-28-1-150-7-2-8-7-5-10v-15l5-10 7-7z" fill="#070908"/>
  <path transform="translate(1088,121)" d="m0 0h41l1 6v46l-1 1h-7l2-3v-19l-1-14-2-7-7-1-16 1h-7l-10-1h-56l-10-1-6 1-36-1h-22l-41-1-1 2h-2l-1 4v24l1 3v20l1 17v10l1 19 1 26v152l1 3v37l1 3 4 1v2h-11l-1-4-1-60-1-154-1-42v-68l47-1z" fill="#11384D"/>
  <path transform="translate(180,162)" d="m0 0h57v43l-1 1-24-1-6-9v-2l-3-1v-2l-10-4h-11l-5 2-4-1-3-4v-2h-73l-4-6v-5l5-5 4-1h26l1-1z" fill="#055D33"/>
  <path transform="translate(1723,116)" d="m0 0h48l1 12 1 25 2 171 1 111 4 1 1 5-11 3h-26l1-2 14-1 4-4h2l1-7 1-1v-20l1-17v-3l-1-21v-33l1-26v-83l1-4-1-10 1-16-2-16-1-41-2-12-2-4-3 1-2-1h-31l-12 3-2 4v18l1 25v24l-1 30-1 8-1 7-4 4-1-126 4-3z" fill="#11394D"/>
  <path transform="translate(85,205)" d="m0 0h7l2 1 54 1-1 10-2 5-6 1-51 2-1 3h60l9 2 2 4-1 8-3 4-15 1-59 1-8-5-6-7-1-3v-12l5-8 9-6z" fill="#020404"/>
  <path transform="translate(128,197)" d="m0 0h37l-1 7-1 5v8l5 10 6 2 1 5-1 48-1 1-10 1h-77v-8l1-5 7-1 44-2 10-1 3-8 1-13 4-4 1-8-1-3-9-2-60-1-1-3 2-1 51-2 6-1 3-14h-34v-1l34-1 3-7h-23z" fill="#075D34"/>
  <path transform="translate(1490,118)" d="m0 0h66l1 4 1 75v48l-3-1-2-4v-12l-1-24-1-33v-26l-1-15-3-4v-2h-3v-2h-34l-6 2h-6l-2 4-3 4-1 5v22l1 37 1 5-1 4 2 13 2 25v121l1 38 1 18-1 5 2 12 2 7 3 2h-13l-1-1-1-83-1-113v-127z" fill="#163C4E"/>
  <path transform="translate(692,123)" d="m0 0h7l1 1h25l67-1h86l1 23v31l-1 1h-90v-1l37-1h52l-1-6h-2v-3l-2-1v-18l-1-15-1-3-3-1h-57l-4 1h-19l-11 1h-64l-17-2-22 2-16 1-7 1h-23l-4 3-1 3v35l1 2-1 2h84l1 4-6-2h-86v-55h77z" fill="#12394C"/>
  <path transform="translate(1017,668)" d="m0 0 2 4 1 5-1 6 1 8 5 13v3l4 2 4 8 6 7 2 1v2l4 2 4 4 14 9 12 4 6 1h13l11-3 9-7 5-5h2l4-8h2l1-7h2l2-7h2v-7l1-5h1v12l-3 11-7 12-9 10-10 8-4-1-9 3-6 1-14-1-9-2-7-3-9-1-14-10-11-9-8-8-12-1-3-3 1-2 4 2-2-5-7-7-3-5-4-4-2-1-1-3v-8l3-5 5-1 9 4 1-3 6 5z" fill="#778660"/>
  <path transform="translate(1045,746)" d="m0 0h9l6 2 10 3 4 1 15 1 7-1 8-3 2 1 1 3 3 2 8 1v2h2l-2 4-11 8-6 5-1 2-3 1-1 2h-3v2l-10 5-9-2-10-5-15-9-9-7-5-5v-7l5-4z" fill="#35291E"/>
  <path transform="translate(549,143)" d="m0 0 13 1 10 5 6 5v8l-1 3-3 1h-111l-6-9-1-5 3-1 18-1 70-1z" fill="#055E33"/>
  <path transform="translate(54,381)" d="m0 0h3l1 14 3 3 8 4 4 7v7l-4 5 31 1 6 11 7 6 4 4-46-1-9-3-2-3-5-3-7-7-6-12-1-3v-9l3-8 7-9z" fill="#065E33"/>
  <path transform="translate(977,776)" d="m0 0h1l2 18 4 16 4 13 3 4 4 1 2 5 4 1v4h2l2 6 2 1 1 11-1 12 1 13 1 9v9l3 1 4 7-7-1-9-7-5-4-2-7-1-15v-25l-3 1-4 5-7 1-2-5-2-14-1-17v-29l1-12z" fill="#0A5D33"/>
  <path transform="translate(707,186)" d="m0 0 2 2 2 14-1 3 1 4 2 10 1 35v125l1 27 1 13v15l-1 8 2 4 5 2 1 4h-14l-1-1-1-61-1-148v-44z" fill="#11394D"/>
  <path transform="translate(772,178)" d="m0 0 2 1 1 154v117l-16 1-4-1-23-1v-2h32l7 1v-3h-15v-2l14-1v-18l-2-34v-42l-1-2 1-27v-79l-1-2 1-52 2-6z" fill="#0E364D"/>
  <path transform="translate(1109,618)" d="m0 0 9 2 5 4 4 6 4 15 1 16 1 5h2l1-3 4 4v8l-1 5-3-1-2 2-9-6-4-6-6-2 4 5-1 6-3 5-5 2h-5l-4-6v-2h-3l1 14-4-2-2-5-1-11v-9l-2-2 6-5h2v-2l9-4 4-3h4l-1-5 1-3-2-6v-11l-3-2-7-1v-1z" fill="#798661"/>
  <path transform="translate(469,282)" d="m0 0h30l6 5-2 10-6 3-44 1h-33l-8-4v-8l5-5 3-1z" fill="#010202"/>
  <path transform="translate(412,429)" d="m0 0 4 1 2 5v6l-16 2-1 1h-95l1-4 7-9 11-1h31z" fill="#055D33"/>
  <path transform="translate(566,173)" d="m0 0h3v5l-5 4-4 2-11 1-33 1-23 2h-32l-1-5v-8l1-1z" fill="#055D33"/>
  <path transform="translate(1100,396)" d="m0 0 33 1 1 1v50l-1 1h-52l-7-1v-1l52-1 2-1 1-5v-3l-1-8-1-5-2-20-6-2h-57l-8 1h-7l-3 1-17 1h-12l-23-2-16-3v-1l6-1 34-1z" fill="#11394D"/>
  <path transform="translate(1490,118)" d="m0 0h66l1 4 1 75v48l-3-1-2-4v-12l-1-24-1-33v-26l-1-15-3-4v-2h-3v-2h-34l-6 2h-6l-2 4-3 4-1 5-1 22h-1l-1-23v-14z" fill="#12394D"/>
  <path transform="translate(1024,253)" d="m0 0h85v50l-1 2h-4l-1-34-1-4-1-6-5-1h-98l-18-2-4-1v-2l2-1z" fill="#0B354C"/>
  <path transform="translate(367,450)" d="m0 0h9v1l-17 3-6 1-26 1-35 3-56 2-26 2-26 1h-17v-2l6-2 1-2 11-1 2 1v-2h7l10-1h14l11-1 56-1 21-1 50-1z" fill="#1A3341"/>
  <path transform="translate(1062,567)" d="m0 0h13l19 2 9 2-3 2 2 3-2 2 2 2 2 9-7 3h-14l-9 1h-5l-3-2-1-5-8 2-4-1v-3h-4v-3h3v-2l8-5 7-3-11 1-1-4z" fill="#73845E"/>
  <path transform="translate(54,381)" d="m0 0h3l1 14 3 3 8 4 4 7v7l-7 7-7 3-1 9-7-6-6-8-4-10v-9l3-8 7-9z" fill="#FCFCFB"/>
  <path transform="translate(1119,798)" d="m0 0 6 1 10 5 3 2 1 16-1 4-11 7h-10l-6-3-4-5-1-3v-14l5-6z" fill="#748660"/>
  <path transform="translate(1052,657)" d="m0 0h15l8 2 2 3 1 3 3 2-1 10h-2v2h-3v4h-2l-6-8h-2l1 6h2v5l-7 4h-10l-4-4v-6l3-5-5 4-4 4-1-3 3-6 10-7 10-4 2 1v-2l-13 1-12 4-2-1 1-4 2-2z" fill="#7E8763"/>
  <path transform="translate(1706,312)" d="m0 0 3 1 2 10v13l2 12 1 20v14l1 18v10l-1 17v6l2 4-7-2 1 6h5l2-2 2 3 23 1v1h-35l-1-101z" fill="#10384D"/>
  <path transform="translate(1076,603)" d="m0 0h28l16 5 12 5 4 1v17l-2 1-1 8-3-2-3-10-9-10-11-1v-2h-2v-2l-9-2-1-1h-12l-7 2-7-1-6 1h-6v3l-11 3-2 1v-4l18-8z" fill="#010202"/>
  <path transform="translate(1335,118)" d="m0 0h59l18 4 9 3v2l-11-1-14-4h-16l-7 2h-46l-18 1-16 3h-5l-4 2-9 2-8 4-9 3-8 4h-2l1-3 19-10 16-6 16-4 6-1z" fill="#183D4F"/>
  <path transform="translate(1559,249)" d="m0 0 3 1h45l97-1v2l-12 3-51 2-41 2h-14l-14-2-12-3-2-3z" fill="#0F374D"/>
  <path transform="translate(120,403)" d="m0 0h10l6 4 3 6v10l-3 5-6 4h-11l-6-4-3-5v-10l4-6z" fill="#D37022"/>
  <path transform="translate(265,279)" d="m0 0h11l6 4 3 4v8l-1 3h-2l-1 5-5 5-7 1-7-3-7-8v-7l4-7z" fill="#D5782E"/>
  <path transform="translate(429,156)" d="m0 0h14l6 4 3 6v9l-5 6-8 4-7-1-5-2-5-8v-8l5-8h2z" fill="#D47327"/>
  <path transform="translate(1114,651)" d="m0 0h9l7 6-2 1-4-2h-9l-1 3h-4v3l6-1 9 6 3 4v3l-4-1-5-5-4-1 4 5-1 6-3 5-5 2h-5l-4-6v-2l-5 1v-6l-1-3 5-12 2-2z" fill="#748660"/>
  <path transform="translate(431,403)" d="m0 0h11l6 4 4 8-1 10-7 6h-5l-5-2v-2l-4-1-6-2-1-4v-8l4-6z" fill="#D27022"/>
  <path transform="translate(1557,316)" d="m0 0h1l2 45v84h-2l-1-11-3-18-1-17 1-65 1-14z" fill="#153B4E"/>
  <path transform="translate(1081,624)" d="m0 0h10l2 1-1 3-2 1-1 7-3 1-4 5-6 2h-14l-5-4-1-6v-4h-3v-2l-5-1v-2z" fill="#FDFDFD"/>
  <path transform="translate(1295,629)" d="m0 0h1l-1 23 2 109v62l1 22v91l-1 9v20h-1l-1-7v-125l-1-19v-74l-1-51v-47z" fill="#CE9A76"/>
  <path transform="translate(1152,613)" d="m0 0h1l1 14 2 6-4-4-3 8-1 3v182h-2l-1-56-1-2v-142l8 2z" fill="#C48F6A"/>
  <path transform="translate(931,605)" d="m0 0 9 1 5 6v12l-5 6-5 2h-7l-5-4-2-4v-8l4-7z" fill="#FAF9F7"/>
  <path transform="translate(1109,618)" d="m0 0 8 4 5 5 2 3 3 12v3h-2v3h-2v2l-9 2-12 4-5 10-1 5 1 2-1 5h2l1 13-4-2-2-5-1-11v-9l-2-2 6-5h2v-2l9-4 4-3h4l-1-5 1-3-2-6v-11l-3-2-7-1v-1z" fill="#BD8963"/>
  <path transform="translate(961,623)" d="m0 0h8l4 8 2 145 3-3 2 1-4 4h-2v2h-2l-1-53-1-64v-16l-1-14h-2v-2l-6-1-2 1z" fill="#BF8A64"/>
  <path transform="translate(1991,489)" d="m0 0h7l6 4 1 2v11l-6 7-2 1h-9l-4-5-1-2v-9l4-6z" fill="#FDFDFC"/>
  <path transform="translate(400,762)" d="m0 0 8 1 6 4 1 2v8l-4 6-5 4h-7l-6-5-1-2v-9l4-6z" fill="#FBFBFA"/>
  <path transform="translate(327,453)" d="m0 0h32v1l-6 1-26 1-35 3-56 2-26 2-26 1h-17v-1l50-3 26-3 6-1 55-1z" fill="#7F8A64"/>
  <path transform="translate(989,848)" d="m0 0h3l2 45-3-1-6-10-6-18-2-8 8-3z" fill="#FDFDFD"/>
  <path transform="translate(1175,605)" d="m0 0h8l5 3 2 4-1 9-5 6-2 1h-8l-4-4-1-3v-7l4-7z" fill="#FAF8F6"/>
  <path transform="translate(1418,385)" d="m0 0h11l5 8 9 19 3 5v8l-5 6-12 7-7 3h-5l4-2 1-4 5-3 4-1 7-6h3l1-4-2-6h-2l-7-15-3-5-7-5-5-2v-2z" fill="#11394C"/>
  <path transform="translate(1062,673)" d="m0 0 5 1 6 7 1 2v10l-9 4-8 4h-3v-2l-5-2-5-4-2-4v-7l7-8 2 1-3 5v6l3 3h10l6-3 1-5h-2l-2-6z" fill="#FCFBFA"/>
  <path transform="translate(900,632)" d="m0 0 5 2-3 1-1 16 1 71 1 43v61l-1 10h-1l-1-49-1-93v-50z" fill="#CC9773"/>
  <path transform="translate(1052,657)" d="m0 0h15l8 2 2 3 1 3 3 2-1 10h-2v2l-4 1-2-3-1-8-1-3-1 3-10-2-3-1 7-3 2 1v-2l-13 1-12 4-2-1 1-4 2-2z" fill="#B68963"/>
  <path transform="translate(968,312)" d="m0 0 2 2 1 51v23l-4 2-2-10v-51l1-14z" fill="#0F374D"/>
  <path transform="translate(1212,617)" d="m0 0h4l2 6 2 144v51l-2 45h-1l-1-13 1-5v-115l-1-110-9 2-1-4 2 1z" fill="#CE9975"/>
  <path transform="translate(1141,836)" d="m0 0 3 1v10l-3 19-5 14-3 4-5-1 3-9 2-18 3-9 2-9z" fill="#065C32"/>
  <path transform="translate(1411,388)" d="m0 0 2 1-1 2-13 6-11 3-17 1v2h-27l-12-3v-2l6-1 8 1h14l34-4z" fill="#1C4050"/>
  <path transform="translate(974,778)" d="m0 0h1l4 21 5 20-1 7h-6l-1-1-1 11h-1l-1-17v-29z" fill="#607C44"/>
  <path transform="translate(1103,753)" d="m0 0 6 1 1 1 8 1v2h2l-2 4-11 8-5 1-3-1-10 2 6-7 2-4h2l2-6z" fill="#030403"/>
  <path transform="translate(987,683)" d="m0 0 1 2 6 2 5 3 5 6 2 6-1 5h3l3 5v6l4 1h-11l-3-3 1-2 4 2-2-5-7-7-3-5-4-4-2-1-1-3z" fill="#E0AE8D"/>
  <path transform="translate(184,195)" d="m0 0h7l6 2 4 6v4h-28l2-5 3-3h2v-2z" fill="#CD9B79"/>
  <path transform="translate(1039,749)" d="m0 0 4 1 4 5v4l-6-1 2 4 5 4 10 6v2l5 1 14 7 8 1v3l-5 1-13-5-10-6-15-10-7-7v-7z" fill="#2D2219"/>
  <path transform="translate(975,833)" d="m0 0 1 4 8 2 1 1 11 2v7l-3 1v-2l-4 1-4 5-7 1-2-5-1-8z" fill="#34261C"/>
  <path transform="translate(1040,757)" d="m0 0 4 1v2l5 2 16 9 9 6 4 2h6l5-3h3l-2 5-5 2h-8l-19-9v-2l-5-2-9-6-4-4z" fill="#0B3147"/>
  <path transform="translate(987,625)" d="m0 0h1l1 10 3 1v3l8-4 15-8 2 1-14 11-6 4-2 2v9l-1 2h-2l-1 2-2-7-2-8z" fill="#030403"/>
  <path transform="translate(966,181)" d="m0 0h2l1 38 1 30h-2v-8h-2l-1-13v-15l-1-7v-13l1-2-1-7z" fill="#0C354B"/>
  <path transform="translate(451,394)" d="m0 0h8l5 3 3 6v14l-3 5-2-2-3-12-8-12z" fill="#055E33"/>
  <path transform="translate(1393,616)" d="m0 0h66v1l-117 2-34 1-7 4-5 5 1-5 9-6 13-1z" fill="#D7A381"/>
  <path transform="translate(765,444)" d="m0 0 6 1v3h-37l-2-1v2h23l4 2-10 1h-20l-2-6 1-1z" fill="#748560"/>
  <path transform="translate(961,623)" d="m0 0h8l4 8 1 79v67h-1l-2-141-3-9h-4-3z" fill="#E0AE8D"/>
  <path transform="translate(1058,676)" d="m0 0h5l2 9v3l-4 2h-10l-3-3v-6h5z" fill="#0A0C0A"/>
  <path transform="translate(1112,619)" d="m0 0 6 1 5 4 4 6 4 15v11l-4-1-4-3-7-1v-1h7v-2h2v-3h2l-5-17-1-3-4-2z" fill="#758660"/>
  <path transform="translate(1106,668)" d="m0 0h4v2l6 1 2 4-1 5-4 4-8 1-2-2v-4h2l1-4 3-4-3-1z" fill="#090806"/>
  <path transform="translate(199,455)" d="m0 0h30v1l-10 3-22 1h-13l-8 2h-5l3-4 11-1 2 1v-2h7z" fill="#34261C"/>
  <path transform="translate(1424,127)" d="m0 0h6l4 4 1 5v7l-3 10-3 5-3-1v-5h2l1-5 1-10-2-4-3-1z" fill="#133B4D"/>
  <path transform="translate(1297,845)" d="m0 0h1v91l-1 9v20h-1l-1-7v-47l1-4z" fill="#C9946F"/>
  <path transform="translate(1101,654)" d="m0 0 3 1-4 4-4 10 1 4-1 5h2l1 13-4-2-2-5-1-11v-9l-2-2 6-5h2v-2z" fill="#C18A64"/>
  <path transform="translate(1097,696)" d="m0 0 5 2 2 8v5l-3 3-8 1-8-3v-4l8 1 4-2z" fill="#837E5B"/>
  <path transform="translate(1294,783)" d="m0 0h1v27h2v97h-1l-1-74-1-19z" fill="#D7A381"/>
  <path transform="translate(1144,765)" d="m0 0 2 1 1 61-1 17h-1l-1-13z" fill="#758660"/>
  <path transform="translate(1212,617)" d="m0 0h4l2 6v107h-1l-1-110-9 2-1-4 2 1z" fill="#C18A64"/>
  <path transform="translate(1028,912)" d="m0 0h9l1 1h40l17-1-4 2-12 2-12 1h-16l-19-3z" fill="#A98862"/>
  <path transform="translate(35,422)" d="m0 0 5 5 8 9 11 8 1 4-5-1-11-8-8-11z" fill="#FCFAF8"/>
  <path transform="translate(1062,765)" d="m0 0 12 1 7 4h2v-2h7l-5 7h-9l-10-6z" fill="#7A8660"/>
  <path transform="translate(816,281)" d="m0 0h2v24l-4-2-3-6v-7z" fill="#F7F0EA"/>
  <path transform="translate(1106,718)" d="m0 0 1 4-2 5h-2v-2l-8 1-7 2-12-3-1-2 22-1 4-1v-2z" fill="#758660"/>
  <path transform="translate(1052,657)" d="m0 0h15l6 3v1l-22 1-9 3-3-1 6-5z" fill="#2F2219"/>
  <path transform="translate(1115,656)" d="m0 0h6l8 5v8l-14-7h-5v-3l4-1z" fill="#C18A64"/>
  <path transform="translate(568,148)" d="m0 0 5 2 5 4v8l-1 1-7-1-2-5z" fill="#FCFBFA"/>
  <path transform="translate(1188,618)" d="m0 0 1 3-5 6-2 1h-8l-4-4v-2l12-2h6z" fill="#DBA179"/>
  <path transform="translate(327,453)" d="m0 0h32v1l-6 1-26 1-25 2v-2l2-1z" fill="#96926E"/>
  <path transform="translate(1052,771)" d="m0 0 6 1v2l5 1 14 7 8 1v3l-5 1-13-5-15-9z" fill="#141614"/>
  <path transform="translate(184,195)" d="m0 0h7l6 2 4 6v4l-3-1-1-4-4-2-9-3-1 3h-2v2l-6 5h-2l2-5 3-3h2v-2z" fill="#5D7B4D"/>
  <path transform="translate(405,506)" d="m0 0h7l3 2v2h-14l-3 16-3-3 1-9 2-4z" fill="#F1EFE9"/>
  <path transform="translate(773,444)" d="m0 0 2 2v4l-16 1-4-1-23-1v-2h39z" fill="#11394D"/>
  <path transform="translate(992,677)" d="m0 0 5 1 7 3 1-3 4 4 1 5-2 4-9-8-4-2-6-1z" fill="#DBAB8A"/>
  <path transform="translate(1133,632)" d="m0 0h1l1 34h-2l-2-5-1-16-1-7 3 1z" fill="#362A1E"/>
  <path transform="translate(1068,774)" d="m0 0 10 5h6l5-3h3l-2 5-5 2h-8l-12-6z" fill="#0B3147"/>
  <path transform="translate(1115,667)" d="m0 0 6 1 4 5 1 2v7l-6 4v-10l-3-5z" fill="#FEFEFE"/>
  <path transform="translate(1272,371)" d="m0 0 5 2 7 6 10 6 4 2-1 4-12-7v-2l-4-1v-2l-5-1-4-5z" fill="#173E4E"/>
  <path transform="translate(516,271)" d="m0 0h6l5 6v12l-6 11-5 4 2-4 6-15 1-4-3-6v-2h-5z" fill="#6A8155"/>
  <path transform="translate(1111,664)" d="m0 0 9 1 8 6v3l-4-1-5-5-4-1 4 5-1 4-2-4-6-2v-2l-4-1z" fill="#534634"/>
  <path transform="translate(1058,670)" d="m0 0h4l-2 5h-2v2h-2l-2 4-5 1-2 4v-6l4-6z" fill="#52524A"/>
  <path transform="translate(1114,651)" d="m0 0h9l7 6-2 1-4-2h-14l-8 2 4-4z" fill="#34261C"/>
  <path transform="translate(1110,756)" d="m0 0h8v2h2l-2 4-11 7 1-4z" fill="#282F20"/>
  <path transform="translate(1773,434)" d="m0 0 6 1 2 2v4l-6 2h-10l4-1v-5l5 1v-2l-2-1z" fill="#081418"/>
  <path transform="translate(1146,846)" d="m0 0h1l-1 12-3 14-3 8h-2l2-14 1-4h2l1-9z" fill="#AD8963"/>
  <path transform="translate(994,687)" d="m0 0 5 1 7 9 5 11 4 10h-4l-2-8-1-3h-3l-1-3 1-4-4-6-2-4-5-2z" fill="#C18A64"/>
  <path transform="translate(1018,609)" d="m0 0 5 1v2l-2 2v2l-4-1v4l-4-1-1-3-7-2-1-2h6l2 1v-2z" fill="#08324B"/>
  <path transform="translate(976,854)" d="m0 0 5 1-3 2 6 20 5 10-1 2-3-3v-2h-2l-5-16-2-10z" fill="#C4926D"/>
  <path transform="translate(729,449)" d="m0 0h26l4 2-10 1h-20z" fill="#888D68"/>
  <path transform="translate(424,416)" d="m0 0 7 7 9 3 4 2-2 2-8-1v-2l-4-1-6-2z" fill="#F8F6F4"/>
  <path transform="translate(1097,696)" d="m0 0 5 2 2 8v5l-3 3-3-1 2-1 1-5-5 2 1-2z" fill="#C18A64"/>
  <path transform="translate(1053,667)" d="m0 0 2 1-2 2 2 1v2l-7 3-5 6-3 1 1-5 2-4z" fill="#8C8B67"/>
  <path transform="translate(977,776)" d="m0 0h1l2 18 1 10-2-2-3-12-1-12z" fill="#0A5730"/>
  <path transform="translate(1104,668)" d="m0 0h2l3 3-4 8h-2l-1 2-2-4v-5z" fill="#797065"/>
  <path transform="translate(532,299)" d="m0 0 1 2-6 8-3 1v2l-13 6-10 2 1-2 15-5 7-5h2l2-4z" fill="#939B95"/>
  <path transform="translate(1306,618)" d="m0 0h36v1l-34 1-7 4-5 5 1-5z" fill="#C18A64"/>
  <path transform="translate(1212,617)" d="m0 0h4l2 6v23h-1l-1-26-9 2-1-4 2 1z" fill="#DAA785"/>
  <path transform="translate(1110,617)" d="m0 0h8l8 8 4 9-1 4-4-10-5-6-4-2-6-1z" fill="#34261C"/>
  <path transform="translate(981,847)" d="m0 0 6 2-1 4-3 2h-5v-7z" fill="#090A07"/>
  <path transform="translate(1039,749)" d="m0 0 4 1 4 5v4l-4-1-6-3 1-4z" fill="#010202"/>
  <path transform="translate(1117,584)" d="m0 0 3 2 3 7-1 2h-2l-2 4-3-1-4 1-1-2 6-2 2-6z" fill="#08324B"/>
  <path transform="translate(960,625)" d="m0 0 1 2h3l1-2 5 3 1 8-2-1v-2h-2v-2l-6-1-2 1z" fill="#BE8962"/>
  <path transform="translate(1176,240)" d="m0 0h2v7l-4 4-1-3-1 6h-2l1-9h3l-1-3z" fill="#466059"/>
  <path transform="translate(1144,622)" d="m0 0 5 2-3 4-1 31h-1z" fill="#E0AE8D"/>
  <path transform="translate(1089,912)" d="m0 0h6l-4 2-12 2h-10l2-2z" fill="#C18A64"/>
  <path transform="translate(1190,200)" d="m0 0h3l-1 5h-2l1 3-3 5-4 2 3-9z" fill="#1B4150"/>
  <path transform="translate(405,506)" d="m0 0h7l3 2v2h-14z" fill="#FCFAF8"/>
  <path transform="translate(830,282)" d="m0 0 3 3 1 2v10l-3 4z" fill="#FEFEFE"/>
  <path transform="translate(1709,434)" d="m0 0 5 2 1 1v5h-5l-2-3z" fill="#FDFCFB"/>
  <path transform="translate(1239,146)" d="m0 0h3v2l-11 9-3 1 2-5z" fill="#0F384D"/>
  <path transform="translate(1716,439)" d="m0 0 3 3 23 1v1h-31z" fill="#08324C"/>
  <path transform="translate(999,706)" d="m0 0 4 2 3 4 1 5-4-1-3-3z" fill="#FEFEFE"/>
  <path transform="translate(1199,188)" d="m0 0 1 3-2 5-5 3-1-2 3-6z" fill="#0D364C"/>
  <path transform="translate(1143,862)" d="m0 0h1v7l-4 11h-2l2-10z" fill="#C28860"/>
  <path transform="translate(1072,781)" d="m0 0 13 2v3l-5 1-6-2v-2z" fill="#241E17"/>
  <path transform="translate(1063,671)" d="m0 0 5 1 5 5 2 3v3h-2l-6-8z" fill="#392E22"/>
  <path transform="translate(1262,133)" d="m0 0m-2 1 2 1-6 5-6 3h-2l1-3z" fill="#194050"/>
  <path transform="translate(1062,567)" d="m0 0h5l-2 4-9 1-1-4z" fill="#7B805E"/>
  <path transform="translate(1139,870)" d="m0 0 1 4-4 10-5 5 2-4 4-11z" fill="#6A8152"/>
  <path transform="translate(1119,673)" d="m0 0 2 3v5l-7 4-4-1 5-2z" fill="#878863"/>
  <path transform="translate(1177,622)" d="m0 0 3 1v4l2 1h-8l-2-1 1-4 4 2z" fill="#C98351"/>
  <path transform="translate(995,675)" d="m0 0 9 1v5l-4-1-5-2z" fill="#F1EAE3"/>
  <path transform="translate(992,893)" d="m0 0h3l5 5 7 6-3 1-12-11z" fill="#A58963"/>
  <path transform="translate(1089,776)" d="m0 0h3l-2 5-5 2-3-1 4-4z" fill="#08324B"/>
  <path transform="translate(1071,770)" d="m0 0 13 3v2h-8l-4-2z" fill="#D9CCB9"/>
  <path transform="translate(1083,768)" d="m0 0h7l-5 7-1-2-4-1 3-2z" fill="#878C67"/>
  <path transform="translate(1062,688)" d="m0 0 3 1-2 3h-12v-3h10z" fill="#B89E7A"/>
  <path transform="translate(1063,675)" d="m0 0h2l1 6h2v5h-3-1z" fill="#5C5B46"/>
  <path transform="translate(182,198)" d="m0 0 2 1-3 1v2l-6 5h-2l2-5 3-3z" fill="#B77632"/>
  <path transform="translate(184,457)" d="m0 0m-10 1h10v2l-8 2h-5z" fill="#34261C"/>
  <path transform="translate(1300,389)" d="m0 0 7 1 5 2-4 2-5-1-1-3z" fill="#2C4D53"/>
  <path transform="translate(1098,677)" d="m0 0h3l2 6-4 2-1-1z" fill="#D9AF90"/>
  <path transform="translate(900,632)" d="m0 0 5 2-3 1-1 16h-1z" fill="#C8936E"/>
  <path transform="translate(1306,618)" d="m0 0 3 1-9 6-4 4 1-5z" fill="#CE9975"/>
  <path transform="translate(304,455)" d="m0 0h13l-3 2-12 1v-2z" fill="#8B8E69"/>
  <path transform="translate(1494,436)" d="m0 0 4 2v6l-4-1z" fill="#FCFBF9"/>
  <path transform="translate(486,309)" d="m0 0h6v2l4 1-2 1h-8z" fill="#8F9F7E"/>
  <path transform="translate(94,170)" d="m0 0h2l1 10-4-4v-5z" fill="#FEFEFE"/>
  <path transform="translate(1068,666)" d="m0 0h2l3 7-2 2-4-4z" fill="#748660"/>
  <path transform="translate(1119,667)" d="m0 0 6 1 3 3v3l-4-1z" fill="#4D4231"/>
  <path transform="translate(187,456)" d="m0 0h6v3l-8 1-1-2h3z" fill="#32241B"/>
</svg>
